<svg id="eYfoiGPqm6g1" xmlns="http://www.w3.org/2000/svg" xmlns:xlink="http://www.w3.org/1999/xlink" viewBox="0 0 600 600" shape-rendering="geometricPrecision" text-rendering="geometricPrecision" project-id="ba09963ab12d4d06a99037dadb36c7e9" export-id="61547119cc974e3ca3c8382b2562a965" cached="false" width="600" height="600"><defs><linearGradient id="eYfoiGPqm6g5-fill" x1="0.17035" y1="0.283012" x2="0.871022" y2="0.937453" spreadMethod="pad" gradientUnits="objectBoundingBox" gradientTransform="translate(0 0)"><stop id="eYfoiGPqm6g5-fill-0" offset="0%" stop-color="#c1c1c1"/><stop id="eYfoiGPqm6g5-fill-1" offset="100%" stop-color="#3e3e3e"/></linearGradient></defs><g transform="matrix(.8 0 0 0.8-68.410052-118.63169)"><g><path d="M134.00982,573.062808c.62459,0,38.716463-6.643322,114.275619-19.929967c28.357175-4.986447,61.991554-10.908595,100.903138-17.766444q45.097343,201.005304,44.453095,201.649552c-.27212.27212-41.62904,9.173432-89.280517,19.434845-65.164034,14.03262-142.099475,30.608755-141.834552,31.138601.458649.917298-29.805279-214.526588-28.516783-214.526587Z" transform="translate(.000001 0.000001)" fill="none" stroke="#b7b7b6" stroke-width="8"/><path d="M253.512381,855.879768l-64.41447-370.688317c-25.884631,3.796825-61.018451-18.040052-69.118688-45.867209-23.013704-70.857134,6.232579-97.746894,29.229971-106.885714l30.538775,92.052595l51.854402-20.103769-24.369504-85.909409c37.75252-3.759453,76.984129,21.595036,83.109096,65.003965c5.908614,37.021424-5.239488,69.323021-19.550268,83.589669q-.58655.584741,81.962208,357.600331l-99.241522,31.207858Z" fill="url(#eYfoiGPqm6g5-fill)" stroke-width="2.296"/><path d="M134.00982,573.062808c.62459,0,38.716463-6.643322,114.275619-19.929967c28.357175-4.986447,61.991554-10.908595,100.903138-17.766444q45.097343,201.005304,44.453095,201.649552c-.27212.27212-41.62904,9.173432-89.280517,19.434845-65.164034,14.03262-142.099475,30.608755-141.834552,31.138601.458649.917298-29.805279-214.526588-28.516783-214.526587Z" transform="translate(.000001 0.000001)" fill="#fbe400" stroke-width="2.296"/><path d="M248.28544,553.132842c7.035247,94.707774,30.658406,171.926171,56.075716,203.317953-42.550366,9.34158-141.834552,31.138601-141.834552,31.138601L134.009821,573.062808c0,0,79.992933-13.950976,114.275619-19.929966Z" fill="#272727" stroke-width="2.296"/></g><path d="M371.918001,190.699457c63.136297,57.818555,285.303338,91.59657,430.777779,114.418161l6.731734,309.076931c-16.794209,56.177121-115.851441,75.902485-205.794562,77.30949-84.918741,4.422225-201.364667-47.744222-212.003137-118.441232v-111.062808c-47.509193-4.311704-81.540298-69.992904-76.216705-104.759696c24.265775-22.68422,30.109516-25.82533,48.118802-20.828784-16.338958-9.0909-7.683972-97.900072,8.386089-145.712062Z" transform="translate(0 0.000001)" fill="#fbe400" stroke-width="2.296"/><path d="M549.901117,556.336325c29.21717-9.877842,91.8044-13.169062,125.489721-5.636654" fill="none" stroke="#272727" stroke-width="8" stroke-linecap="round" stroke-linejoin="round"/><g><ellipse rx="21.164212" ry="50.370824" transform="matrix(1 0 0 0.697479 514.76764 449.284676)" fill="#272727" stroke-width="0"/><ellipse rx="11.116172" ry="7.103239" transform="translate(531.786643 436.255459)" fill="#fff" stroke-width="0"/></g><g transform="translate(.000001 0.000001)"><ellipse rx="21.164212" ry="48.254403" transform="matrix(1 0 0 0.697479 677.308786 451.401097)" fill="#272727" stroke-width="0"/><ellipse rx="11.116172" ry="7.103239" transform="translate(692.424958 436.255459)" fill="#fff" stroke-width="0"/></g></g></svg>
